<?xml version="1.0" encoding="UTF-8" standalone="no"?>
<svg
   xmlns:osb="http://www.openswatchbook.org/uri/2009/osb"
   xmlns:dc="http://purl.org/dc/elements/1.1/"
   xmlns:cc="http://creativecommons.org/ns#"
   xmlns:rdf="http://www.w3.org/1999/02/22-rdf-syntax-ns#"
   xmlns:svg="http://www.w3.org/2000/svg"
   xmlns="http://www.w3.org/2000/svg"
   xmlns:sodipodi="http://sodipodi.sourceforge.net/DTD/sodipodi-0.dtd"
   xmlns:inkscape="http://www.inkscape.org/namespaces/inkscape"
   inkscape:export-ydpi="96"
   inkscape:export-xdpi="96"
   inkscape:export-filename="/Users/redqueen/development/2021/ewingar/logoLgRot.png"
   width="1200"
   height="1832"
   viewBox="0 0 317.49999 484.7166"
   version="1.1"
   id="svg8"
   inkscape:version="1.0 (4035a4f, 2020-05-01)"
   sodipodi:docname="phDevOutBlk.svg">
  <defs
     id="defs2">
    <rect
       id="rect1471"
       height="247.67467"
       width="394.37427"
       y="350.36127"
       x="-459.27426" />
    <rect
       id="rect1426"
       height="259.1058"
       width="474.39224"
       y="342.74051"
       x="-558.34412" />
    <rect
       id="rect1377"
       height="238.14871"
       width="377.22754"
       y="349.40866"
       x="-545.96039" />
    <rect
       id="rect1308"
       height="274.34732"
       width="502.97006"
       y="67.44059"
       x="-1273.7428" />
    <rect
       x="-976.22681"
       y="180.8206"
       width="245.18539"
       height="57.928417"
       id="rect1361" />
    <rect
       x="-974.87964"
       y="135.01675"
       width="467.46887"
       height="231.71367"
       id="rect1313" />
    <rect
       x="-1024.725"
       y="121.54502"
       width="487.67645"
       height="276.17038"
       id="rect1266" />
    <linearGradient
       osb:paint="solid"
       id="linearGradient2271">
      <stop
         id="stop2269"
         offset="0"
         style="stop-color:#008000;stop-opacity:1;" />
    </linearGradient>
    <marker
       inkscape:isstock="true"
       style="overflow:visible"
       id="Arrow1Lstart"
       refX="0"
       refY="0"
       orient="auto"
       inkscape:stockid="Arrow1Lstart">
      <path
         transform="matrix(0.8,0,0,0.8,10,0)"
         style="fill:#1a1a1a;fill-opacity:1;fill-rule:evenodd;stroke:#008000;stroke-width:1pt;stroke-opacity:1"
         d="M 0,0 5,-5 -12.5,0 5,5 Z"
         id="path1986" />
    </marker>
    <rect
       id="rect4658"
       height="98.651787"
       width="233.96725"
       y="-972.53271"
       x="-1243.9196" />
    <rect
       id="rect4609"
       height="145.74956"
       width="279.9411"
       y="-1045.5583"
       x="-1260.4431" />
    <inkscape:path-effect
       lpeversion="1"
       is_visible="true"
       id="path-effect1544"
       effect="spiro" />
    <inkscape:path-effect
       lpeversion="1"
       is_visible="true"
       id="path-effect1540"
       effect="spiro" />
    <inkscape:path-effect
       lpeversion="1"
       is_visible="true"
       id="path-effect1536"
       effect="spiro" />
    <inkscape:path-effect
       lpeversion="1"
       is_visible="true"
       id="path-effect1532"
       effect="spiro" />
    <inkscape:path-effect
       lpeversion="1"
       is_visible="true"
       id="path-effect1528"
       effect="spiro" />
    <inkscape:path-effect
       lpeversion="1"
       is_visible="true"
       id="path-effect1524"
       effect="spiro" />
    <rect
       x="-730.7149"
       y="-293.99649"
       width="253.37151"
       height="103.70058"
       id="rect1484" />
    <filter
       id="filter1880"
       style="color-interpolation-filters:sRGB"
       inkscape:label="Dark and Glow"
       inkscape:menu="Shadows and Glows"
       inkscape:menu-tooltip="Darkens the edge with an inner blur and adds a flexible glow"
       height="1.5"
       y="-0.25">
      <feGaussianBlur
         id="feGaussianBlur1870"
         result="result6"
         stdDeviation="5" />
      <feComposite
         id="feComposite1872"
         in2="result6"
         operator="atop"
         in="SourceGraphic"
         result="result8" />
      <feComposite
         id="feComposite1874"
         in="result8"
         in2="SourceAlpha"
         operator="over"
         result="result9" />
      <feColorMatrix
         id="feColorMatrix1876"
         result="result10"
         values="1 0 0 0 0 0 1 0 0 0 0 0 1 0 0 0 0 0 1 0 " />
      <feBlend
         id="feBlend1878"
         in2="result6"
         mode="normal"
         in="result10" />
    </filter>
    <filter
       id="filter1892"
       style="color-interpolation-filters:sRGB"
       inkscape:label="Dark and Glow"
       inkscape:menu="Shadows and Glows"
       inkscape:menu-tooltip="Darkens the edge with an inner blur and adds a flexible glow"
       height="1.5"
       y="-0.25">
      <feGaussianBlur
         id="feGaussianBlur1882"
         result="result6"
         stdDeviation="5" />
      <feComposite
         id="feComposite1884"
         in2="result6"
         operator="atop"
         in="SourceGraphic"
         result="result8" />
      <feComposite
         id="feComposite1886"
         in="result8"
         in2="SourceAlpha"
         operator="over"
         result="result9" />
      <feColorMatrix
         id="feColorMatrix1888"
         result="result10"
         values="1 0 0 0 0 0 1 0 0 0 0 0 1 0 0 0 0 0 1 0 " />
      <feBlend
         id="feBlend1890"
         in2="result6"
         mode="normal"
         in="result10" />
    </filter>
    <filter
       id="filter1904"
       style="color-interpolation-filters:sRGB"
       inkscape:label="Dark and Glow"
       inkscape:menu="Shadows and Glows"
       inkscape:menu-tooltip="Darkens the edge with an inner blur and adds a flexible glow"
       height="1.5"
       y="-0.25">
      <feGaussianBlur
         id="feGaussianBlur1894"
         result="result6"
         stdDeviation="5" />
      <feComposite
         id="feComposite1896"
         in2="result6"
         operator="atop"
         in="SourceGraphic"
         result="result8" />
      <feComposite
         id="feComposite1898"
         in="result8"
         in2="SourceAlpha"
         operator="over"
         result="result9" />
      <feColorMatrix
         id="feColorMatrix1900"
         result="result10"
         values="1 0 0 0 0 0 1 0 0 0 0 0 1 0 0 0 0 0 1 0 " />
      <feBlend
         id="feBlend1902"
         in2="result6"
         mode="normal"
         in="result10" />
    </filter>
    <filter
       id="filter1916"
       style="color-interpolation-filters:sRGB"
       inkscape:label="Dark and Glow"
       inkscape:menu="Shadows and Glows"
       inkscape:menu-tooltip="Darkens the edge with an inner blur and adds a flexible glow"
       height="1.5"
       y="-0.25">
      <feGaussianBlur
         id="feGaussianBlur1906"
         result="result6"
         stdDeviation="5" />
      <feComposite
         id="feComposite1908"
         in2="result6"
         operator="atop"
         in="SourceGraphic"
         result="result8" />
      <feComposite
         id="feComposite1910"
         in="result8"
         in2="SourceAlpha"
         operator="over"
         result="result9" />
      <feColorMatrix
         id="feColorMatrix1912"
         result="result10"
         values="1 0 0 0 0 0 1 0 0 0 0 0 1 0 0 0 0 0 1 0 " />
      <feBlend
         id="feBlend1914"
         in2="result6"
         mode="normal"
         in="result10" />
    </filter>
    <filter
       id="filter1928"
       style="color-interpolation-filters:sRGB"
       inkscape:label="Dark and Glow"
       inkscape:menu="Shadows and Glows"
       inkscape:menu-tooltip="Darkens the edge with an inner blur and adds a flexible glow"
       height="1.5"
       y="-0.25">
      <feGaussianBlur
         id="feGaussianBlur1918"
         result="result6"
         stdDeviation="5" />
      <feComposite
         id="feComposite1920"
         in2="result6"
         operator="atop"
         in="SourceGraphic"
         result="result8" />
      <feComposite
         id="feComposite1922"
         in="result8"
         in2="SourceAlpha"
         operator="over"
         result="result9" />
      <feColorMatrix
         id="feColorMatrix1924"
         result="result10"
         values="1 0 0 0 0 0 1 0 0 0 0 0 1 0 0 0 0 0 1 0 " />
      <feBlend
         id="feBlend1926"
         in2="result6"
         mode="normal"
         in="result10" />
    </filter>
    <filter
       id="filter1940"
       style="color-interpolation-filters:sRGB"
       inkscape:label="Dark and Glow"
       inkscape:menu="Shadows and Glows"
       inkscape:menu-tooltip="Darkens the edge with an inner blur and adds a flexible glow"
       height="1.5"
       y="-0.25">
      <feGaussianBlur
         id="feGaussianBlur1930"
         result="result6"
         stdDeviation="5" />
      <feComposite
         id="feComposite1932"
         in2="result6"
         operator="atop"
         in="SourceGraphic"
         result="result8" />
      <feComposite
         id="feComposite1934"
         in="result8"
         in2="SourceAlpha"
         operator="over"
         result="result9" />
      <feColorMatrix
         id="feColorMatrix1936"
         result="result10"
         values="1 0 0 0 0 0 1 0 0 0 0 0 1 0 0 0 0 0 1 0 " />
      <feBlend
         id="feBlend1938"
         in2="result6"
         mode="normal"
         in="result10" />
    </filter>
    <filter
       id="filter1952"
       style="color-interpolation-filters:sRGB"
       inkscape:label="Dark and Glow"
       inkscape:menu="Shadows and Glows"
       inkscape:menu-tooltip="Darkens the edge with an inner blur and adds a flexible glow"
       height="1.5"
       y="-0.25">
      <feGaussianBlur
         id="feGaussianBlur1942"
         result="result6"
         stdDeviation="5" />
      <feComposite
         id="feComposite1944"
         in2="result6"
         operator="atop"
         in="SourceGraphic"
         result="result8" />
      <feComposite
         id="feComposite1946"
         in="result8"
         in2="SourceAlpha"
         operator="over"
         result="result9" />
      <feColorMatrix
         id="feColorMatrix1948"
         result="result10"
         values="1 0 0 0 0 0 1 0 0 0 0 0 1 0 0 0 0 0 1 0 " />
      <feBlend
         id="feBlend1950"
         in2="result6"
         mode="normal"
         in="result10" />
    </filter>
    <filter
       id="filter1964"
       style="color-interpolation-filters:sRGB"
       inkscape:label="Dark and Glow"
       inkscape:menu="Shadows and Glows"
       inkscape:menu-tooltip="Darkens the edge with an inner blur and adds a flexible glow"
       height="1.5"
       y="-0.25">
      <feGaussianBlur
         id="feGaussianBlur1954"
         result="result6"
         stdDeviation="5" />
      <feComposite
         id="feComposite1956"
         in2="result6"
         operator="atop"
         in="SourceGraphic"
         result="result8" />
      <feComposite
         id="feComposite1958"
         in="result8"
         in2="SourceAlpha"
         operator="over"
         result="result9" />
      <feColorMatrix
         id="feColorMatrix1960"
         result="result10"
         values="1 0 0 0 0 0 1 0 0 0 0 0 1 0 0 0 0 0 1 0 " />
      <feBlend
         id="feBlend1962"
         in2="result6"
         mode="normal"
         in="result10" />
    </filter>
    <filter
       id="filter1976"
       style="color-interpolation-filters:sRGB"
       inkscape:label="Dark and Glow"
       inkscape:menu="Shadows and Glows"
       inkscape:menu-tooltip="Darkens the edge with an inner blur and adds a flexible glow"
       height="1.5"
       y="-0.25">
      <feGaussianBlur
         id="feGaussianBlur1966"
         result="result6"
         stdDeviation="5" />
      <feComposite
         id="feComposite1968"
         in2="result6"
         operator="atop"
         in="SourceGraphic"
         result="result8" />
      <feComposite
         id="feComposite1970"
         in="result8"
         in2="SourceAlpha"
         operator="over"
         result="result9" />
      <feColorMatrix
         id="feColorMatrix1972"
         result="result10"
         values="1 0 0 0 0 0 1 0 0 0 0 0 1 0 0 0 0 0 1 0 " />
      <feBlend
         id="feBlend1974"
         in2="result6"
         mode="normal"
         in="result10" />
    </filter>
    <filter
       id="filter1988"
       style="color-interpolation-filters:sRGB"
       inkscape:label="Dark and Glow"
       inkscape:menu="Shadows and Glows"
       inkscape:menu-tooltip="Darkens the edge with an inner blur and adds a flexible glow"
       height="1.5"
       y="-0.25">
      <feGaussianBlur
         id="feGaussianBlur1978"
         result="result6"
         stdDeviation="5" />
      <feComposite
         id="feComposite1980"
         in2="result6"
         operator="atop"
         in="SourceGraphic"
         result="result8" />
      <feComposite
         id="feComposite1982"
         in="result8"
         in2="SourceAlpha"
         operator="over"
         result="result9" />
      <feColorMatrix
         id="feColorMatrix1984"
         result="result10"
         values="1 0 0 0 0 0 1 0 0 0 0 0 1 0 0 0 0 0 1 0 " />
      <feBlend
         id="feBlend1986"
         in2="result6"
         mode="normal"
         in="result10" />
    </filter>
    <filter
       id="filter2000"
       style="color-interpolation-filters:sRGB"
       inkscape:label="Dark and Glow"
       inkscape:menu="Shadows and Glows"
       inkscape:menu-tooltip="Darkens the edge with an inner blur and adds a flexible glow"
       height="1.5"
       y="-0.25">
      <feGaussianBlur
         id="feGaussianBlur1990"
         result="result6"
         stdDeviation="5" />
      <feComposite
         id="feComposite1992"
         in2="result6"
         operator="atop"
         in="SourceGraphic"
         result="result8" />
      <feComposite
         id="feComposite1994"
         in="result8"
         in2="SourceAlpha"
         operator="over"
         result="result9" />
      <feColorMatrix
         id="feColorMatrix1996"
         result="result10"
         values="1 0 0 0 0 0 1 0 0 0 0 0 1 0 0 0 0 0 1 0 " />
      <feBlend
         id="feBlend1998"
         in2="result6"
         mode="normal"
         in="result10" />
    </filter>
    <filter
       id="filter2012"
       style="color-interpolation-filters:sRGB"
       inkscape:label="Dark and Glow"
       inkscape:menu="Shadows and Glows"
       inkscape:menu-tooltip="Darkens the edge with an inner blur and adds a flexible glow"
       height="1.5"
       y="-0.25">
      <feGaussianBlur
         id="feGaussianBlur2002"
         result="result6"
         stdDeviation="5" />
      <feComposite
         id="feComposite2004"
         in2="result6"
         operator="atop"
         in="SourceGraphic"
         result="result8" />
      <feComposite
         id="feComposite2006"
         in="result8"
         in2="SourceAlpha"
         operator="over"
         result="result9" />
      <feColorMatrix
         id="feColorMatrix2008"
         result="result10"
         values="1 0 0 0 0 0 1 0 0 0 0 0 1 0 0 0 0 0 1 0 " />
      <feBlend
         id="feBlend2010"
         in2="result6"
         mode="normal"
         in="result10" />
    </filter>
    <filter
       id="filter2024"
       style="color-interpolation-filters:sRGB"
       inkscape:label="Dark and Glow"
       inkscape:menu="Shadows and Glows"
       inkscape:menu-tooltip="Darkens the edge with an inner blur and adds a flexible glow"
       height="1.5"
       y="-0.25">
      <feGaussianBlur
         id="feGaussianBlur2014"
         result="result6"
         stdDeviation="5" />
      <feComposite
         id="feComposite2016"
         in2="result6"
         operator="atop"
         in="SourceGraphic"
         result="result8" />
      <feComposite
         id="feComposite2018"
         in="result8"
         in2="SourceAlpha"
         operator="over"
         result="result9" />
      <feColorMatrix
         id="feColorMatrix2020"
         result="result10"
         values="1 0 0 0 0 0 1 0 0 0 0 0 1 0 0 0 0 0 1 0 " />
      <feBlend
         id="feBlend2022"
         in2="result6"
         mode="normal"
         in="result10" />
    </filter>
  </defs>
  <sodipodi:namedview
     inkscape:snap-nodes="false"
     inkscape:object-nodes="false"
     inkscape:snap-others="false"
     inkscape:guide-bbox="true"
     showguides="true"
     id="base"
     pagecolor="#ffffff"
     bordercolor="#666666"
     borderopacity="1.0"
     inkscape:pageopacity="0.0"
     inkscape:pageshadow="2"
     inkscape:zoom="0.25"
     inkscape:cx="676.49555"
     inkscape:cy="1412.2718"
     inkscape:document-units="mm"
     inkscape:current-layer="layer1"
     inkscape:document-rotation="0"
     showgrid="false"
     units="px"
     inkscape:window-width="1795"
     inkscape:window-height="971"
     inkscape:window-x="0"
     inkscape:window-y="25"
     inkscape:window-maximized="0">
    <sodipodi:guide
       id="guide1396"
       orientation="0,-1"
       position="-690.62443,869.15515" />
    <sodipodi:guide
       id="guide1398"
       orientation="0,-1"
       position="-797.26497,677.52289" />
    <sodipodi:guide
       id="guide4681"
       orientation="0,-1"
       position="-1249.4003,1074.9643" />
    <sodipodi:guide
       id="guide1312"
       orientation="0,-1"
       position="-152.66436,15.065902" />
    <sodipodi:guide
       id="guide1314"
       orientation="0,-1"
       position="559.02093,-204.26088" />
  </sodipodi:namedview>
  <metadata
     id="metadata5">
    <rdf:RDF>
      <cc:Work
         rdf:about="">
        <dc:format>image/svg+xml</dc:format>
        <dc:type
           rdf:resource="http://purl.org/dc/dcmitype/StillImage" />
        <dc:title></dc:title>
      </cc:Work>
    </rdf:RDF>
  </metadata>
  <g
     inkscape:label="Layer 1"
     inkscape:groupmode="layer"
     id="layer1">
    <rect
       ry="6.803575"
       rx="6.803575"
       y="-13.758333"
       x="-26.458332"
       height="534.45831"
       width="378.88333"
       id="rect2362"
       style="fill:#000000;fill-opacity:1;fill-rule:evenodd;stroke-width:1.11099" />
    <path
       id="path1254"
       d=""
       style="fill:#404d42;stroke:#000000;stroke-width:0.252857;stroke-linejoin:round;stroke-opacity:1;fill-opacity:0.04105572" />
    <path
       id="path1339"
       d=""
       style="fill:#404d42;stroke:#000000;stroke-width:0.252857;stroke-linejoin:round;stroke-opacity:1;fill-opacity:0.04105572" />
    <g
       style="opacity:0.395062;fill:#404d42;fill-opacity:0.04105572;stroke:none;stroke-width:6;stroke-linecap:round;stroke-linejoin:round;stroke-miterlimit:4;stroke-dasharray:none;stroke-opacity:0.140762"
       id="g1980"
       transform="matrix(0.9608351,0,0,0.9608351,-1875.269,-4143.328)" />
    <g
       style="opacity:0.395062;fill:#404d42;fill-opacity:0.04105572;stroke:none;stroke-width:6;stroke-linecap:round;stroke-linejoin:round;stroke-miterlimit:4;stroke-dasharray:none;stroke-opacity:0.140762"
       id="g2004"
       transform="matrix(0.9608351,0,0,0.9608351,-1435.2418,-4140.4947)" />
    <g
       style="opacity:0.395062;fill:#404d42;fill-opacity:0.04105572;stroke:none;stroke-width:6;stroke-linecap:round;stroke-linejoin:round;stroke-miterlimit:4;stroke-dasharray:none;stroke-opacity:0.140762"
       id="g2028"
       transform="matrix(0.9608351,0,0,0.9608351,-1435.2418,-4140.4947)" />
    <g
       id="g1867"
       transform="matrix(0.63271651,-0.00782794,0.00782794,0.63271651,-33.867223,1293.063)"
       style="fill:#404d42;fill-opacity:0.04105572">
      <path
         sodipodi:nodetypes="ccccccccccc"
         id="path1859"
         d="m 443.36729,-1713.1316 c 0,0 7.20752,9.1993 24.75085,4.0125 0,0 8.49915,-2.8532 16.01844,-9.2236 0,0 7.82531,-6.5129 15.01138,-5.403 0,0 8.89844,0.7986 12.53389,7.7636 0,0 19.61166,-9.2674 30.39977,8.0748 -0.32479,0.305 -8.51778,-13.6743 -30.82758,-5.8409 0,0 -2.47482,-7.5005 -14.3492,-7.483 0,0 -4.9778,0.095 -10.23602,4.7051 0,0 -7.14776,6.4075 -18.32002,10.154 0,0 -18.43117,2.9402 -24.98151,-6.7595 z"
         style="fill:#404d42;fill-opacity:0.04105572;stroke:none;stroke-width:1.76305000000000001px;stroke-linecap:butt;stroke-linejoin:miter;stroke-opacity:1" />
      <path
         id="path1861"
         d="m 443.39486,-1713.4089 c 0,0 8.15976,18.2995 27.1038,12.8652 0.002,0.013 -17.26352,7.573 -27.1038,-12.8652 z"
         style="fill:#404d42;fill-opacity:0.04105572;stroke:none;stroke-width:1.76305000000000001px;stroke-linecap:butt;stroke-linejoin:miter;stroke-opacity:1"
         sodipodi:nodetypes="ccc" />
      <path
         sodipodi:nodetypes="ccccccccc"
         id="path1863"
         d="m 470.1919,-1699.9888 c 0,0 -9.38018,19.9727 -18.47869,28.6743 0,0 -5.51459,5.1051 -11.48126,8.574 0,0 -12.10354,5.8003 -12.82384,13.4994 0.0172,-0.3214 0.18455,-13.5309 -10.83692,-23.6316 0,0 10.60701,10.6427 10.60521,26.5209 -0.1536,-0.01 0.82737,-8.2576 9.76617,-12.5347 0,0 10.4852,-5.8064 11.88212,-7.4242 0,0 13.2456,-11.5446 21.36721,-33.6781 z"
         style="fill:#404d42;fill-opacity:0.04105572;stroke:none;stroke-width:1.76305000000000001px;stroke-linecap:butt;stroke-linejoin:miter;stroke-opacity:1" />
      <path
         style="fill:#404d42;fill-opacity:0.04105572;stroke:none;stroke-width:1.76305000000000001px;stroke-linecap:butt;stroke-linejoin:miter;stroke-opacity:1"
         d="m 332.71199,-1528.8943 c 0,0 10.01446,-14.2945 41.78599,-20.332 -0.64919,0.61 43.77534,-7.2189 59.03204,-19.1421 -1.22976,-0.066 38.63652,-23.0474 57.30183,-72.4862 0,0 8.9418,-27.211 12.84859,-33.9744 0,0 12.54461,-28.9663 38.40411,-33.0769 0,0 -31.78869,-3.0556 -50.87612,53.2635 0.0688,-1.286 -9.60685,36.2341 -40.53771,64.1672 0.0344,-0.6429 -20.41658,24.8884 -57.24475,33.2345 1.26413,-0.5771 -51.89317,9.0184 -60.71398,28.3464 z"
         id="path1865"
         sodipodi:nodetypes="cccccccccc" />
    </g>
    <g
       id="g1871"
       style="fill:#404d42;fill-opacity:0.04105572"
       transform="matrix(0.63275207,-0.00402982,0.00402982,0.63275207,-56.150996,1084.0941)">
      <path
         id="path1869"
         style="fill:#404d42;fill-opacity:0.04105572;stroke:none;stroke-width:0.87862200000000001px;stroke-linecap:butt;stroke-linejoin:miter;stroke-opacity:1"
         d="m 296.45845,-1275.1606 c -20.85544,-3.553 -31.05184,0.4235 -30.8892,0.3133 -7.21366,2.4686 -13.33428,0.2825 -13.33428,0.2825 -8.16418,-2.4386 -12.22102,-6.3682 -13.54207,-7.8756 -0.46472,-0.6055 -0.71507,-0.9748 -0.71536,-0.9749 0.0682,0.1195 0.13893,0.2344 0.20785,0.3525 4.09312,7.0281 9.41865,11.758 14.84564,14.9417 -0.58158,0.1785 -4.36099,1.376 -9.33503,3.9371 2.72989,-1.3112 5.83393,-2.6386 9.34905,-3.9287 12.38385,7.2589 25.29171,6.4583 25.29171,6.4583 -16.9195,-1.8957 -28.08526,-9.3914 -34.30006,-15.0605 3.57718,2.6048 6.70067,3.2353 6.51361,3.3123 7.35955,3.1567 15.08054,-0.1579 15.08053,-0.1579 14.51089,-5.4488 30.94735,-1.3099 30.82761,-1.6001 z m -52.76245,10.9766 c -12.57711,6.041 -17.18414,11.7172 -17.11353,11.5726 -5.04211,5.7192 -11.44126,6.8539 -11.44126,6.8539 -10.29325,2.391 -15.83314,0.075 -15.97485,0.01 6.32264,3.1209 15.27983,1.5861 15.08746,1.8331 7.95665,-0.9056 13.01955,-7.6106 13.01955,-7.6106 4.86384,-5.8563 11.21543,-9.9775 16.42263,-12.6584 z m -44.52964,18.4359 c -9e-4,-5e-4 -0.0209,0 -0.0212,0 -0.009,-0.016 -0.0439,-0.028 -0.0535,-0.032 19.52753,11.9194 39.17121,3.208 44.70371,0.2774 -25.167,24.6503 -51.97647,22.409 -52.34687,22.6573 -21.15197,0.7802 -45.72644,-18.964 -45.97047,-19.1605 -0.003,-3e-4 -0.054,-0.072 -0.0542,-0.072 0.0133,0.019 0.0263,0.04 0.0392,0.061 3.2e-4,2e-4 6.7e-4,5e-4 8.6e-4,7e-4 18.70091,28.8668 35.08536,32.1274 34.38489,32.0962 24.45806,10.3558 50.11148,-2.4165 58.34588,-7.2056 -85.34615,56.4186 -65.14957,139.4185 -65.13648,138.386 17.50355,81.58363 102.44255,69.4617 102.97911,68.9404 -0.24165,0 -0.47889,0 -0.71942,0 -85.19,-11.7467 -75.46847,-92.7236 -75.11096,-92.1686 7.13792,-74.1831 75.25616,-106.5124 75.25616,-106.5124 -84.46553,40.0289 -79.21247,122.2182 -79.05227,121.2531 2.67031,68.6409 63.15973,76.7698 76.4378,77.4325 -99.60152,-0.4995 -98.50892,-85.8337 -97.99135,-85.3043 -5.06647,-80.3679 69.43655,-125.9069 69.43655,-125.9069 -1.36196,0.8315 -2.69752,1.6702 -4.01055,2.5144 -31.01773,15.5319 -55.40782,7.8416 -55.83183,7.9624 -20.30492,-5.6125 -38.64679,-31.0642 -38.97169,-31.4779 26.36089,22.4238 42.41866,20.979 41.7387,21.1644 29.71128,2.8875 53.37568,-21.1837 56.6772,-24.718 0.92568,-0.4941 1.4382,-0.8145 1.4382,-0.8145 -0.36493,0.1513 -0.72818,0.2968 -1.09051,0.4403 0.0166,-0.02 0.0842,-0.092 0.0842,-0.092 -0.0335,0.033 -0.0677,0.067 -0.10126,0.099 -25.21185,9.9643 -43.9622,0.7852 -45.06169,0.1822 z m 76.29857,37.2653 c -76.95501,44.1465 -47.38834,113.1813 -47.5025,112.3439 25.62993,64.7868 101.13479,55.7012 101.55855,55.2912 -0.69888,0 -1.3924,0 -2.08181,0 -84.72452,-12.1473 -80.03231,-86.181 -79.66796,-85.6717 4.52724,-50.7668 43.93216,-79.3907 63.09229,-90.4236 -2.8076,4.0097 -21.46527,32.2304 -10.94465,60.1368 -0.003,-0.7013 2.59935,15.8003 30.69482,35.6405 2.4e-4,2e-4 7.4e-4,4e-4 8.7e-4,7e-4 0.0183,0.018 0.0391,0.028 0.059,0.041 10e-5,-2e-4 -0.0666,-0.054 -0.0697,-0.057 -0.18958,-0.2559 -18.9319,-25.5976 -17.30654,-46.6997 0.26278,-0.3601 -0.90433,-27.2371 24.732,-51.3982 -3.15001,5.4119 -12.63878,24.6909 -1.51025,44.6785 -0.003,-0.012 -0.0212,-0.045 -0.0263,-0.057 -0.0196,-0.05 -2.18406,-5.7016 0.64134,-15.9805 0,0 1.38984,-6.3489 7.30608,-11.1583 -0.17981,0.08 8.59546,-6.4599 16.63422,-26.0292 -0.18259,-0.2551 -5.38279,15.8768 -17.69332,25.2954 0,0 -6.90214,4.7909 -8.12515,12.705 0.25493,-0.1823 -1.63797,8.7092 1.22958,15.1516 -0.55031,-1.1069 -8.98713,-20.2157 1.98179,-45.0199 0.0353,-0.034 0.0689,-0.065 0.10428,-0.098 0,0 -0.0773,0.066 -0.0965,0.081 0.15771,-0.3566 0.31861,-0.7136 0.48448,-1.0724 0,0 -0.34084,0.4991 -0.8713,1.4039 -3.66211,3.1562 -28.66221,25.8397 -26.96525,55.6439 0.21239,-0.6722 -1.87355,15.3153 19.4774,42.5513 -0.4029,-0.3433 -25.09746,-19.6873 -29.89312,-40.1993 0.13789,-0.4194 -6.59567,-25.1841 10.27764,-55.6303 6.19861,-3.561 10.25934,-5.2759 10.25934,-5.2759 -83.65578,35.1496 -77.18383,109.9977 -77.03849,109.1221 3.63197,61.4669 65.13874,71.0896 80.37221,72.2734 -88.3865,-2.0059 -97.4729,-68.6189 -96.9446,-68.1992 -14.21607,-63.7462 47.8315,-99.3887 47.8315,-99.3887 z" />
    </g>
    <g
       id="g1887"
       style="fill:#404d42;fill-opacity:0.04105572"
       transform="matrix(0.62280396,0.11183313,-0.11183313,0.62280396,-430.68393,1332.8453)">
      <path
         id="path1873"
         style="fill:#404d42;fill-opacity:0.04105572;stroke:none;stroke-width:0.39328700000000000px;stroke-linecap:butt;stroke-linejoin:miter;stroke-opacity:1"
         d="m 659.26206,-1967.2204 c 0.74915,0.8133 1.49298,1.6308 2.22984,2.4551 15.21907,-57.1392 51.91532,-165.3777 125.2125,-236.8274 -101.75047,106.6607 -87.71236,243.3037 -87.67527,244.244 0.007,-0.1765 0.0142,-0.3511 0.0207,-0.5271 0.17174,-2.4309 1.78874,-15.4891 7.59127,-24.2264 0.18407,-0.1237 4.8051,-10.657 18.01852,-17.9922 -7.42347,39.9859 -17.62625,70.8352 -29.20854,94.6402 0.0833,0.3297 0.17994,0.656 0.25992,0.9865 0.32412,1.3395 0.62058,2.6859 0.88884,4.039 0.16561,0.8354 0.2997,1.6783 0.44339,2.5187 22.37841,-47.9351 27.59919,-101.9686 27.62001,-102.186 -3.7e-4,-4e-4 0.0114,-0.01 0.0114,-0.01 l -0.0124,0.01 c 2.1e-4,-4e-4 0.002,-0.035 0.002,-0.035 -0.006,0.015 -0.004,0.024 -0.006,0.035 -0.0691,0.023 -11.38219,3.8726 -19.72025,19.2082 0.24183,-0.2644 -5.08061,7.6228 -5.82498,21.3299 5.71455,-142.2887 80.18819,-233.113 89.14548,-243.5448 0.0271,-0.026 0.0516,-0.052 0.079,-0.077 0,0 -0.045,0.037 -0.0455,0.039 0.53311,-0.6197 0.87963,-1.0087 0.88006,-1.0093 -0.46247,0.4739 -0.91737,0.9492 -1.37512,1.4242 -5.26137,4.3538 -96.96122,82.1523 -128.53478,235.5051 z" />
      <path
         id="path1875"
         style="fill:#404d42;fill-opacity:0.04105572;stroke:none;stroke-width:0.39328700000000000px;stroke-linecap:butt;stroke-linejoin:miter;stroke-opacity:1"
         d="m 550.95756,-2120.1868 c 0,0 -15.32129,37.2095 -12.66951,91.8383 1.42758,0.9413 2.7699,1.8688 4.25194,2.8133 -2.72695,-30.0451 -1.38189,-62.8665 8.41757,-94.6516 z" />
      <path
         id="path1877"
         style="fill:#404d42;fill-opacity:0.04105572;stroke:none;stroke-width:0.39328700000000000px;stroke-linecap:butt;stroke-linejoin:miter;stroke-opacity:1"
         d="m 552.94555,-2019.1997 c 0.42809,0.2488 0.8432,0.5042 1.27383,0.7514 0.85186,0.4888 1.72488,0.9579 2.58589,1.4392 -10.10851,-58.6711 -5.84771,-103.1777 -5.84771,-103.1777 -4.70177,38.1385 -2.74711,72.2792 1.98799,100.9871 z" />
      <path
         id="path1879"
         style="fill:#404d42;fill-opacity:0.04105572;stroke:none;stroke-width:0.39328700000000000px;stroke-linecap:butt;stroke-linejoin:miter;stroke-opacity:1"
         d="m 646.19671,-2209.5013 c 0,0 -45.33511,68.4314 -59.68938,184.7609 1.00419,0.6055 1.88507,1.102 2.92385,1.7404 0.53739,0.3303 1.14688,0.7395 1.69292,1.0785 7.4044,-59.2977 22.92966,-129.4937 55.07261,-187.5798 z" />
      <path
         id="path1881"
         style="fill:#404d42;fill-opacity:0.04105572;stroke:none;stroke-width:0.39328700000000000px;stroke-linecap:butt;stroke-linejoin:miter;stroke-opacity:1"
         d="m 607.0053,-2011.5831 c 1.45726,1.0007 2.94161,2.0537 4.42299,3.1011 -3.87512,-118.9277 34.76842,-201.0193 34.76842,-201.0193 -37.39132,72.3696 -42.45642,145.6957 -39.19141,197.9182 z" />
      <path
         id="path1883"
         style="fill:#404d42;fill-opacity:0.04105572;stroke:none;stroke-width:0.39328700000000000px;stroke-linecap:butt;stroke-linejoin:miter;stroke-opacity:1"
         d="m 725.2999,-2216.4182 c 0,0 -71.72397,76.7097 -99.40376,218.6844 0.0403,0.032 0.0801,0.061 0.1204,0.092 1.32929,1.043 2.65889,2.1329 3.98839,3.2091 14.56123,-65.9573 42.67093,-155.4112 95.29497,-221.986 z" />
      <path
         id="path1885"
         style="fill:#404d42;fill-opacity:0.04105572;stroke:none;stroke-width:0.39328700000000000px;stroke-linecap:butt;stroke-linejoin:miter;stroke-opacity:1"
         d="m 725.2999,-2216.4182 c -68.74496,90.6638 -74.45872,192.9844 -72.45088,242.4943 0.79248,0.7956 1.57456,1.6028 2.35696,2.4102 2.5601,-148.2622 70.09392,-244.9045 70.09392,-244.9045 z" />
    </g>
    <path
       id="path1889"
       style="fill:#404d42;fill-opacity:0.04105572;stroke:none;stroke-width:0.24885900000000000px;stroke-linecap:butt;stroke-linejoin:miter;stroke-opacity:1"
       d="m 61.63007,29.696073 c 0.101517,0.407429 0.206133,0.811138 0.309593,1.2164 0.618679,4.471541 12.931644,86.388657 93.940877,156.616277 C 66.65518,136.36214 33.771978,59.990598 33.771978,59.990598 67.379212,147.09307 147.00501,183.83705 156.34657,187.93035 c 3.03369,2.61966 6.1598,5.22343 9.38818,7.80547 C 165.16699,195.23961 81.95487,120.77124 62.185622,31.877044 85.727409,122.13303 163.93824,160.05151 164.45663,160.34443 c -0.0915,-0.0642 -0.18419,-0.12368 -0.27659,-0.18632 -1.25116,-0.90149 -7.741,-6.11739 -10.51227,-12.14795 -0.005,-0.14013 -4.13606,-6.13245 -3.68659,-15.68475 91.46345,83.07401 48.61212,130.67091 44.1451,135.18059 58.17348,-57.52332 -43.93203,-135.02171 -44.14485,-135.18302 -3e-4,-7e-5 0.004,-0.01 0.004,-0.01 0,0 -0.004,0.01 -0.004,0.01 -1.2e-4,-3.4e-4 -0.0232,-0.007 -0.0232,-0.007 0.007,0.0122 0.0164,0.004 0.013,0.017 -0.002,0.0471 -1.70379,7.41467 3.77483,17.00563 -0.0621,-0.21816 2.41181,5.27099 9.54103,10.2333 C 88.612346,109.1456 64.516188,38.839723 61.88277,30.547445 c -0.0053,-0.02317 -0.0124,-0.04586 -0.01556,-0.06848 0,0 0.0075,0.03727 0.0072,0.03824 -0.156082,-0.493362 -0.2504,-0.809915 -0.2504,-0.809915 z M 33.771978,59.990598 c 0,0 21.905689,80.881062 111.690492,148.998562 C 54.470078,171.44317 11.170254,104.86445 11.170254,104.86445 55.824523,179.34353 132.4758,205.34593 146.15961,209.51683 c 5.92359,4.4722 12.13924,8.8887 18.66326,13.22223 C 164.16114,222.26029 66.427526,149.98156 33.771978,59.990598 Z M 11.170254,104.86445 c 0,0 34.095642,74.1185 130.705466,128.00325 -65.459385,-9.89425 -114.332703,-47.02369 -114.332703,-47.02369 52.075219,41.80804 104.706453,46.68375 114.753963,47.25994 5.61946,3.12484 11.44951,6.18104 17.49634,9.15009 C 159.09867,241.87949 56.211793,185.09335 11.170254,104.86445 Z m 16.372763,80.97956 c 0,0 30.438333,42.13743 92.693613,54.86971 -37.758384,9.5247 -64.681279,-13.00528 -64.681279,-13.00528 28.8934,26.51828 59.742069,15.25117 64.980289,13.06537 8.84557,1.79277 18.33074,2.99242 28.4608,3.39313 -0.52023,-0.046 -77.770223,-8.30869 -121.453423,-58.32293 z m 28.012334,41.86443 c 0,0 20.797084,42.96747 68.195549,22.15989 -0.30059,0.10498 -44.917295,14.62349 -68.195549,-22.15989 z" />
    <g
       style="fill:#404d42;fill-opacity:0.04105572;stroke:none;stroke-width:1.79579;stroke-miterlimit:4;stroke-dasharray:none;stroke-opacity:1;paint-order:markers stroke fill"
       id="g1905"
       transform="matrix(1.6368966,0,0,1.6368966,1774.4575,-1639.1063)" />
    <g
       style="fill:#404d42;fill-opacity:0.04105572"
       transform="matrix(0.63271651,-0.00782794,0.00782794,0.63271651,-33.867223,1293.063)"
       id="g2227">
      <path
         style="fill:#404d42;fill-opacity:0.04105572;stroke:none;stroke-width:1.76305000000000001px;stroke-linecap:butt;stroke-linejoin:miter;stroke-opacity:1"
         d="m 443.36729,-1713.1316 c 0,0 7.20752,9.1993 24.75085,4.0125 0,0 8.49915,-2.8532 16.01844,-9.2236 0,0 7.82531,-6.5129 15.01138,-5.403 0,0 8.89844,0.7986 12.53389,7.7636 0,0 19.61166,-9.2674 30.39977,8.0748 -0.32479,0.305 -8.51778,-13.6743 -30.82758,-5.8409 0,0 -2.47482,-7.5005 -14.3492,-7.483 0,0 -4.9778,0.095 -10.23602,4.7051 0,0 -7.14776,6.4075 -18.32002,10.154 0,0 -18.43117,2.9402 -24.98151,-6.7595 z"
         id="path2219"
         sodipodi:nodetypes="ccccccccccc" />
      <path
         sodipodi:nodetypes="ccc"
         style="fill:#404d42;fill-opacity:0.04105572;stroke:none;stroke-width:1.76305000000000001px;stroke-linecap:butt;stroke-linejoin:miter;stroke-opacity:1"
         d="m 443.39486,-1713.4089 c 0,0 8.15976,18.2995 27.1038,12.8652 0.002,0.013 -17.26352,7.573 -27.1038,-12.8652 z"
         id="path2221" />
      <path
         style="fill:#404d42;fill-opacity:0.04105572;stroke:none;stroke-width:1.76305000000000001px;stroke-linecap:butt;stroke-linejoin:miter;stroke-opacity:1"
         d="m 470.1919,-1699.9888 c 0,0 -9.38018,19.9727 -18.47869,28.6743 0,0 -5.51459,5.1051 -11.48126,8.574 0,0 -12.10354,5.8003 -12.82384,13.4994 0.0172,-0.3214 0.18455,-13.5309 -10.83692,-23.6316 0,0 10.60701,10.6427 10.60521,26.5209 -0.1536,-0.01 0.82737,-8.2576 9.76617,-12.5347 0,0 10.4852,-5.8064 11.88212,-7.4242 0,0 13.2456,-11.5446 21.36721,-33.6781 z"
         id="path2223"
         sodipodi:nodetypes="ccccccccc" />
      <path
         sodipodi:nodetypes="cccccccccc"
         id="path2225"
         d="m 332.71199,-1528.8943 c 0,0 10.01446,-14.2945 41.78599,-20.332 -0.64919,0.61 43.77534,-7.2189 59.03204,-19.1421 -1.22976,-0.066 38.63652,-23.0474 57.30183,-72.4862 0,0 8.9418,-27.211 12.84859,-33.9744 0,0 12.54461,-28.9663 38.40411,-33.0769 0,0 -31.78869,-3.0556 -50.87612,53.2635 0.0688,-1.286 -9.60685,36.2341 -40.53771,64.1672 0.0344,-0.6429 -20.41658,24.8884 -57.24475,33.2345 1.26413,-0.5771 -51.89317,9.0184 -60.71398,28.3464 z"
         style="fill:#404d42;fill-opacity:0.04105572;stroke:none;stroke-width:1.76305000000000001px;stroke-linecap:butt;stroke-linejoin:miter;stroke-opacity:1" />
    </g>
    <g
       transform="matrix(0.63275207,-0.00402982,0.00402982,0.63275207,-56.150996,1084.0941)"
       style="fill:#404d42;fill-opacity:0.04105572"
       id="g2231">
      <path
         d="m 296.45845,-1275.1606 c -20.85544,-3.553 -31.05184,0.4235 -30.8892,0.3133 -7.21366,2.4686 -13.33428,0.2825 -13.33428,0.2825 -8.16418,-2.4386 -12.22102,-6.3682 -13.54207,-7.8756 -0.46472,-0.6055 -0.71507,-0.9748 -0.71536,-0.9749 0.0682,0.1195 0.13893,0.2344 0.20785,0.3525 4.09312,7.0281 9.41865,11.758 14.84564,14.9417 -0.58158,0.1785 -4.36099,1.376 -9.33503,3.9371 2.72989,-1.3112 5.83393,-2.6386 9.34905,-3.9287 12.38385,7.2589 25.29171,6.4583 25.29171,6.4583 -16.9195,-1.8957 -28.08526,-9.3914 -34.30006,-15.0605 3.57718,2.6048 6.70067,3.2353 6.51361,3.3123 7.35955,3.1567 15.08054,-0.1579 15.08053,-0.1579 14.51089,-5.4488 30.94735,-1.3099 30.82761,-1.6001 z m -52.76245,10.9766 c -12.57711,6.041 -17.18414,11.7172 -17.11353,11.5726 -5.04211,5.7192 -11.44126,6.8539 -11.44126,6.8539 -10.29325,2.391 -15.83314,0.075 -15.97485,0.01 6.32264,3.1209 15.27983,1.5861 15.08746,1.8331 7.95665,-0.9056 13.01955,-7.6106 13.01955,-7.6106 4.86384,-5.8563 11.21543,-9.9775 16.42263,-12.6584 z m -44.52964,18.4359 c -9e-4,-5e-4 -0.0209,0 -0.0212,0 -0.009,-0.016 -0.0439,-0.028 -0.0535,-0.032 19.52753,11.9194 39.17121,3.208 44.70371,0.2774 -25.167,24.6503 -51.97647,22.409 -52.34687,22.6573 -21.15197,0.7802 -45.72644,-18.964 -45.97047,-19.1605 -0.003,-3e-4 -0.054,-0.072 -0.0542,-0.072 0.0133,0.019 0.0263,0.04 0.0392,0.061 3.2e-4,2e-4 6.7e-4,5e-4 8.6e-4,7e-4 18.70091,28.8668 35.08536,32.1274 34.38489,32.0962 24.45806,10.3558 50.11148,-2.4165 58.34588,-7.2056 -85.34615,56.4186 -65.14957,139.4185 -65.13648,138.386 17.50355,81.58363 102.44255,69.4617 102.97911,68.9404 -0.24165,0 -0.47889,0 -0.71942,0 -85.19,-11.7467 -75.46847,-92.7236 -75.11096,-92.1686 7.13792,-74.1831 75.25616,-106.5124 75.25616,-106.5124 -84.46553,40.0289 -79.21247,122.2182 -79.05227,121.2531 2.67031,68.6409 63.15973,76.7698 76.4378,77.4325 -99.60152,-0.4995 -98.50892,-85.8337 -97.99135,-85.3043 -5.06647,-80.3679 69.43655,-125.9069 69.43655,-125.9069 -1.36196,0.8315 -2.69752,1.6702 -4.01055,2.5144 -31.01773,15.5319 -55.40782,7.8416 -55.83183,7.9624 -20.30492,-5.6125 -38.64679,-31.0642 -38.97169,-31.4779 26.36089,22.4238 42.41866,20.979 41.7387,21.1644 29.71128,2.8875 53.37568,-21.1837 56.6772,-24.718 0.92568,-0.4941 1.4382,-0.8145 1.4382,-0.8145 -0.36493,0.1513 -0.72818,0.2968 -1.09051,0.4403 0.0166,-0.02 0.0842,-0.092 0.0842,-0.092 -0.0335,0.033 -0.0677,0.067 -0.10126,0.099 -25.21185,9.9643 -43.9622,0.7852 -45.06169,0.1822 z m 76.29857,37.2653 c -76.95501,44.1465 -47.38834,113.1813 -47.5025,112.3439 25.62993,64.7868 101.13479,55.7012 101.55855,55.2912 -0.69888,0 -1.3924,0 -2.08181,0 -84.72452,-12.1473 -80.03231,-86.181 -79.66796,-85.6717 4.52724,-50.7668 43.93216,-79.3907 63.09229,-90.4236 -2.8076,4.0097 -21.46527,32.2304 -10.94465,60.1368 -0.003,-0.7013 2.59935,15.8003 30.69482,35.6405 2.4e-4,2e-4 7.4e-4,4e-4 8.7e-4,7e-4 0.0183,0.018 0.0391,0.028 0.059,0.041 10e-5,-2e-4 -0.0666,-0.054 -0.0697,-0.057 -0.18958,-0.2559 -18.9319,-25.5976 -17.30654,-46.6997 0.26278,-0.3601 -0.90433,-27.2371 24.732,-51.3982 -3.15001,5.4119 -12.63878,24.6909 -1.51025,44.6785 -0.003,-0.012 -0.0212,-0.045 -0.0263,-0.057 -0.0196,-0.05 -2.18406,-5.7016 0.64134,-15.9805 0,0 1.38984,-6.3489 7.30608,-11.1583 -0.17981,0.08 8.59546,-6.4599 16.63422,-26.0292 -0.18259,-0.2551 -5.38279,15.8768 -17.69332,25.2954 0,0 -6.90214,4.7909 -8.12515,12.705 0.25493,-0.1823 -1.63797,8.7092 1.22958,15.1516 -0.55031,-1.1069 -8.98713,-20.2157 1.98179,-45.0199 0.0353,-0.034 0.0689,-0.065 0.10428,-0.098 0,0 -0.0773,0.066 -0.0965,0.081 0.15771,-0.3566 0.31861,-0.7136 0.48448,-1.0724 0,0 -0.34084,0.4991 -0.8713,1.4039 -3.66211,3.1562 -28.66221,25.8397 -26.96525,55.6439 0.21239,-0.6722 -1.87355,15.3153 19.4774,42.5513 -0.4029,-0.3433 -25.09746,-19.6873 -29.89312,-40.1993 0.13789,-0.4194 -6.59567,-25.1841 10.27764,-55.6303 6.19861,-3.561 10.25934,-5.2759 10.25934,-5.2759 -83.65578,35.1496 -77.18383,109.9977 -77.03849,109.1221 3.63197,61.4669 65.13874,71.0896 80.37221,72.2734 -88.3865,-2.0059 -97.4729,-68.6189 -96.9446,-68.1992 -14.21607,-63.7462 47.8315,-99.3887 47.8315,-99.3887 z"
         style="fill:#404d42;fill-opacity:0.04105572;stroke:none;stroke-width:0.87862200000000001px;stroke-linecap:butt;stroke-linejoin:miter;stroke-opacity:1"
         id="path2229" />
    </g>
    <g
       transform="matrix(0.62280396,0.11183313,-0.11183313,0.62280396,-430.68393,1332.8453)"
       style="fill:#404d42;fill-opacity:0.04105572"
       id="g2247">
      <path
         d="m 659.26206,-1967.2204 c 0.74915,0.8133 1.49298,1.6308 2.22984,2.4551 15.21907,-57.1392 51.91532,-165.3777 125.2125,-236.8274 -101.75047,106.6607 -87.71236,243.3037 -87.67527,244.244 0.007,-0.1765 0.0142,-0.3511 0.0207,-0.5271 0.17174,-2.4309 1.78874,-15.4891 7.59127,-24.2264 0.18407,-0.1237 4.8051,-10.657 18.01852,-17.9922 -7.42347,39.9859 -17.62625,70.8352 -29.20854,94.6402 0.0833,0.3297 0.17994,0.656 0.25992,0.9865 0.32412,1.3395 0.62058,2.6859 0.88884,4.039 0.16561,0.8354 0.2997,1.6783 0.44339,2.5187 22.37841,-47.9351 27.59919,-101.9686 27.62001,-102.186 -3.7e-4,-4e-4 0.0114,-0.01 0.0114,-0.01 l -0.0124,0.01 c 2.1e-4,-4e-4 0.002,-0.035 0.002,-0.035 -0.006,0.015 -0.004,0.024 -0.006,0.035 -0.0691,0.023 -11.38219,3.8726 -19.72025,19.2082 0.24183,-0.2644 -5.08061,7.6228 -5.82498,21.3299 5.71455,-142.2887 80.18819,-233.113 89.14548,-243.5448 0.0271,-0.026 0.0516,-0.052 0.079,-0.077 0,0 -0.045,0.037 -0.0455,0.039 0.53311,-0.6197 0.87963,-1.0087 0.88006,-1.0093 -0.46247,0.4739 -0.91737,0.9492 -1.37512,1.4242 -5.26137,4.3538 -96.96122,82.1523 -128.53478,235.5051 z"
         style="fill:#404d42;fill-opacity:0.04105572;stroke:none;stroke-width:0.39328700000000000px;stroke-linecap:butt;stroke-linejoin:miter;stroke-opacity:1"
         id="path2233" />
      <path
         d="m 550.95756,-2120.1868 c 0,0 -15.32129,37.2095 -12.66951,91.8383 1.42758,0.9413 2.7699,1.8688 4.25194,2.8133 -2.72695,-30.0451 -1.38189,-62.8665 8.41757,-94.6516 z"
         style="fill:#404d42;fill-opacity:0.04105572;stroke:none;stroke-width:0.39328700000000000px;stroke-linecap:butt;stroke-linejoin:miter;stroke-opacity:1"
         id="path2235" />
      <path
         d="m 552.94555,-2019.1997 c 0.42809,0.2488 0.8432,0.5042 1.27383,0.7514 0.85186,0.4888 1.72488,0.9579 2.58589,1.4392 -10.10851,-58.6711 -5.84771,-103.1777 -5.84771,-103.1777 -4.70177,38.1385 -2.74711,72.2792 1.98799,100.9871 z"
         style="fill:#404d42;fill-opacity:0.04105572;stroke:none;stroke-width:0.39328700000000000px;stroke-linecap:butt;stroke-linejoin:miter;stroke-opacity:1"
         id="path2237" />
      <path
         d="m 646.19671,-2209.5013 c 0,0 -45.33511,68.4314 -59.68938,184.7609 1.00419,0.6055 1.88507,1.102 2.92385,1.7404 0.53739,0.3303 1.14688,0.7395 1.69292,1.0785 7.4044,-59.2977 22.92966,-129.4937 55.07261,-187.5798 z"
         style="fill:#404d42;fill-opacity:0.04105572;stroke:none;stroke-width:0.39328700000000000px;stroke-linecap:butt;stroke-linejoin:miter;stroke-opacity:1"
         id="path2239" />
      <path
         d="m 607.0053,-2011.5831 c 1.45726,1.0007 2.94161,2.0537 4.42299,3.1011 -3.87512,-118.9277 34.76842,-201.0193 34.76842,-201.0193 -37.39132,72.3696 -42.45642,145.6957 -39.19141,197.9182 z"
         style="fill:#404d42;fill-opacity:0.04105572;stroke:none;stroke-width:0.39328700000000000px;stroke-linecap:butt;stroke-linejoin:miter;stroke-opacity:1"
         id="path2241" />
      <path
         d="m 725.2999,-2216.4182 c 0,0 -71.72397,76.7097 -99.40376,218.6844 0.0403,0.032 0.0801,0.061 0.1204,0.092 1.32929,1.043 2.65889,2.1329 3.98839,3.2091 14.56123,-65.9573 42.67093,-155.4112 95.29497,-221.986 z"
         style="fill:#404d42;fill-opacity:0.04105572;stroke:none;stroke-width:0.39328700000000000px;stroke-linecap:butt;stroke-linejoin:miter;stroke-opacity:1"
         id="path2243" />
      <path
         d="m 725.2999,-2216.4182 c -68.74496,90.6638 -74.45872,192.9844 -72.45088,242.4943 0.79248,0.7956 1.57456,1.6028 2.35696,2.4102 2.5601,-148.2622 70.09392,-244.9045 70.09392,-244.9045 z"
         style="fill:#404d42;fill-opacity:0.04105572;stroke:none;stroke-width:0.39328700000000000px;stroke-linecap:butt;stroke-linejoin:miter;stroke-opacity:1"
         id="path2245" />
    </g>
    <path
       d="m 61.63007,29.696073 c 0.101517,0.407429 0.206133,0.811138 0.309593,1.2164 0.618679,4.471541 12.931644,86.388657 93.940877,156.616277 C 66.65518,136.36214 33.771978,59.990598 33.771978,59.990598 67.379212,147.09307 147.00501,183.83705 156.34657,187.93035 c 3.03369,2.61966 6.1598,5.22343 9.38818,7.80547 C 165.16699,195.23961 81.95487,120.77124 62.185622,31.877044 85.727409,122.13303 163.93824,160.05151 164.45663,160.34443 c -0.0915,-0.0642 -0.18419,-0.12368 -0.27659,-0.18632 -1.25116,-0.90149 -7.741,-6.11739 -10.51227,-12.14795 -0.005,-0.14013 -4.13606,-6.13245 -3.68659,-15.68475 91.46345,83.07401 48.61212,130.67091 44.1451,135.18059 58.17348,-57.52332 -43.93203,-135.02171 -44.14485,-135.18302 -3e-4,-7e-5 0.004,-0.01 0.004,-0.01 0,0 -0.004,0.01 -0.004,0.01 -1.2e-4,-3.4e-4 -0.0232,-0.007 -0.0232,-0.007 0.007,0.0122 0.0164,0.004 0.013,0.017 -0.002,0.0471 -1.70379,7.41467 3.77483,17.00563 -0.0621,-0.21816 2.41181,5.27099 9.54103,10.2333 C 88.612346,109.1456 64.516188,38.839723 61.88277,30.547445 c -0.0053,-0.02317 -0.0124,-0.04586 -0.01556,-0.06848 0,0 0.0075,0.03727 0.0072,0.03824 -0.156082,-0.493362 -0.2504,-0.809915 -0.2504,-0.809915 z M 33.771978,59.990598 c 0,0 21.905689,80.881062 111.690492,148.998562 C 54.470078,171.44317 11.170254,104.86445 11.170254,104.86445 55.824523,179.34353 132.4758,205.34593 146.15961,209.51683 c 5.92359,4.4722 12.13924,8.8887 18.66326,13.22223 C 164.16114,222.26029 66.427526,149.98156 33.771978,59.990598 Z M 11.170254,104.86445 c 0,0 34.095642,74.1185 130.705466,128.00325 -65.459385,-9.89425 -114.332703,-47.02369 -114.332703,-47.02369 52.075219,41.80804 104.706453,46.68375 114.753963,47.25994 5.61946,3.12484 11.44951,6.18104 17.49634,9.15009 C 159.09867,241.87949 56.211793,185.09335 11.170254,104.86445 Z m 16.372763,80.97956 c 0,0 30.438333,42.13743 92.693613,54.86971 -37.758384,9.5247 -64.681279,-13.00528 -64.681279,-13.00528 28.8934,26.51828 59.742069,15.25117 64.980289,13.06537 8.84557,1.79277 18.33074,2.99242 28.4608,3.39313 -0.52023,-0.046 -77.770223,-8.30869 -121.453423,-58.32293 z m 28.012334,41.86443 c 0,0 20.797084,42.96747 68.195549,22.15989 -0.30059,0.10498 -44.917295,14.62349 -68.195549,-22.15989 z"
       style="fill:#404d42;fill-opacity:0.04105572;stroke:none;stroke-width:0.24885900000000000px;stroke-linecap:butt;stroke-linejoin:miter;stroke-opacity:1"
       id="path2249" />
  </g>
</svg>
